<svg width="30" height="16" viewBox="0 0 30 16" fill="none" xmlns="http://www.w3.org/2000/svg">
<path d="M0.761364 15V0.454545H5.67614C6.81724 0.454545 7.75 0.660511 8.47443 1.07244C9.2036 1.47964 9.74337 2.03125 10.0938 2.72727C10.4441 3.4233 10.6193 4.19981 10.6193 5.05682C10.6193 5.91383 10.4441 6.69271 10.0938 7.39347C9.74811 8.09422 9.21307 8.65294 8.48864 9.0696C7.7642 9.48153 6.83617 9.6875 5.70455 9.6875H2.18182V8.125H5.64773C6.42898 8.125 7.05634 7.99006 7.52983 7.72017C8.00331 7.45028 8.34659 7.0857 8.55966 6.62642C8.77746 6.16241 8.88636 5.6392 8.88636 5.05682C8.88636 4.47443 8.77746 3.9536 8.55966 3.49432C8.34659 3.03504 8.00095 2.67519 7.52273 2.41477C7.04451 2.14962 6.41004 2.01705 5.61932 2.01705H2.52273V15H0.761364ZM13.2294 15V4.09091H14.8487V5.73864H14.9624C15.1612 5.19886 15.5211 4.76089 16.0419 4.42472C16.5627 4.08854 17.1499 3.92045 17.8033 3.92045C17.9264 3.92045 18.0803 3.92282 18.2649 3.92756C18.4496 3.93229 18.5893 3.93939 18.6839 3.94886V5.65341C18.6271 5.6392 18.4969 5.6179 18.2933 5.58949C18.0945 5.55634 17.8838 5.53977 17.6612 5.53977C17.1309 5.53977 16.6574 5.65104 16.2408 5.87358C15.8288 6.09138 15.5021 6.39441 15.2607 6.78267C15.0239 7.16619 14.9055 7.60417 14.9055 8.09659V15H13.2294ZM24.7706 15.2273C23.7857 15.2273 22.9216 14.9929 22.1783 14.5241C21.4396 14.0554 20.862 13.3996 20.4453 12.5568C20.0334 11.714 19.8274 10.7292 19.8274 9.60227C19.8274 8.46591 20.0334 7.47396 20.4453 6.62642C20.862 5.77888 21.4396 5.12074 22.1783 4.65199C22.9216 4.18324 23.7857 3.94886 24.7706 3.94886C25.7554 3.94886 26.6172 4.18324 27.3558 4.65199C28.0992 5.12074 28.6768 5.77888 29.0888 6.62642C29.5054 7.47396 29.7138 8.46591 29.7138 9.60227C29.7138 10.7292 29.5054 11.714 29.0888 12.5568C28.6768 13.3996 28.0992 14.0554 27.3558 14.5241C26.6172 14.9929 25.7554 15.2273 24.7706 15.2273ZM24.7706 13.7216C25.5187 13.7216 26.1342 13.5298 26.6172 13.1463C27.1001 12.7628 27.4576 12.2585 27.6896 11.6335C27.9216 11.0085 28.0376 10.3314 28.0376 9.60227C28.0376 8.87311 27.9216 8.19366 27.6896 7.56392C27.4576 6.93419 27.1001 6.42519 26.6172 6.03693C26.1342 5.64867 25.5187 5.45455 24.7706 5.45455C24.0225 5.45455 23.407 5.64867 22.924 6.03693C22.4411 6.42519 22.0836 6.93419 21.8516 7.56392C21.6196 8.19366 21.5036 8.87311 21.5036 9.60227C21.5036 10.3314 21.6196 11.0085 21.8516 11.6335C22.0836 12.2585 22.4411 12.7628 22.924 13.1463C23.407 13.5298 24.0225 13.7216 24.7706 13.7216Z" fill="white"/>
</svg>
