<svg width="88" height="21" viewBox="0 0 88 21" fill="none" xmlns="http://www.w3.org/2000/svg">
<path d="M8.71591 5.09091C8.63068 4.37121 8.28504 3.8125 7.67898 3.41477C7.07292 3.01705 6.32955 2.81818 5.44886 2.81818C4.80492 2.81818 4.24148 2.92235 3.75852 3.13068C3.2803 3.33901 2.90625 3.62547 2.63636 3.99006C2.37121 4.35464 2.23864 4.76894 2.23864 5.23295C2.23864 5.62121 2.33097 5.95502 2.51562 6.23438C2.70502 6.509 2.9465 6.73864 3.24006 6.9233C3.53362 7.10322 3.84138 7.25237 4.16335 7.37074C4.48532 7.48437 4.78125 7.5767 5.05114 7.64773L6.52841 8.04545C6.9072 8.14489 7.3286 8.2822 7.79261 8.45739C8.26136 8.63258 8.70881 8.87169 9.13494 9.17472C9.56581 9.47301 9.92093 9.85653 10.2003 10.3253C10.4796 10.794 10.6193 11.3693 10.6193 12.0511C10.6193 12.8371 10.4134 13.5473 10.0014 14.1818C9.59422 14.8163 8.99763 15.3205 8.21165 15.6946C7.4304 16.0687 6.48106 16.2557 5.36364 16.2557C4.32197 16.2557 3.41998 16.0876 2.65767 15.7514C1.90009 15.4152 1.3035 14.9465 0.867898 14.3452C0.437027 13.7438 0.193182 13.0455 0.136364 12.25H1.95455C2.00189 12.7992 2.18655 13.2538 2.50852 13.6136C2.83523 13.9687 3.24716 14.2339 3.74432 14.4091C4.24621 14.5795 4.78598 14.6648 5.36364 14.6648C6.03598 14.6648 6.63968 14.5559 7.17472 14.3381C7.70975 14.1155 8.13352 13.8078 8.44602 13.4148C8.75852 13.017 8.91477 12.553 8.91477 12.0227C8.91477 11.5398 8.77983 11.1468 8.50994 10.8438C8.24006 10.5407 7.88494 10.2945 7.4446 10.1051C7.00426 9.91572 6.52841 9.75 6.01705 9.60795L4.22727 9.09659C3.09091 8.76989 2.19129 8.3035 1.52841 7.69744C0.86553 7.09138 0.534091 6.2983 0.534091 5.31818C0.534091 4.50379 0.754261 3.79356 1.1946 3.1875C1.63968 2.5767 2.23627 2.10322 2.98438 1.76705C3.73722 1.42614 4.57765 1.25568 5.50568 1.25568C6.44318 1.25568 7.27652 1.42377 8.00568 1.75994C8.73485 2.09138 9.3125 2.54593 9.73864 3.12358C10.1695 3.70123 10.3968 4.35701 10.4205 5.09091H8.71591ZM13.288 16V5.09091H14.9641V16H13.288ZM14.1403 3.27273C13.8136 3.27273 13.5318 3.16146 13.2951 2.93892C13.0631 2.71638 12.9471 2.44886 12.9471 2.13636C12.9471 1.82386 13.0631 1.55634 13.2951 1.33381C13.5318 1.11127 13.8136 1 14.1403 1C14.467 1 14.7463 1.11127 14.9783 1.33381C15.2151 1.55634 15.3335 1.82386 15.3335 2.13636C15.3335 2.44886 15.2151 2.71638 14.9783 2.93892C14.7463 3.16146 14.467 3.27273 14.1403 3.27273ZM22.4375 20.3182C21.6278 20.3182 20.9318 20.214 20.3494 20.0057C19.767 19.8021 19.2817 19.5322 18.8935 19.196C18.5099 18.8646 18.2045 18.5095 17.9773 18.1307L19.3125 17.1932C19.464 17.392 19.6558 17.6193 19.8878 17.875C20.1198 18.1354 20.437 18.3603 20.8395 18.5497C21.2467 18.7438 21.7794 18.8409 22.4375 18.8409C23.3182 18.8409 24.045 18.6278 24.6179 18.2017C25.1908 17.7756 25.4773 17.108 25.4773 16.1989V13.983H25.3352C25.2121 14.1818 25.0369 14.428 24.8097 14.7216C24.5871 15.0104 24.2652 15.2685 23.8438 15.4957C23.4271 15.7183 22.8636 15.8295 22.1534 15.8295C21.2727 15.8295 20.482 15.6212 19.7812 15.2045C19.0852 14.7879 18.5336 14.1818 18.1264 13.3864C17.724 12.5909 17.5227 11.625 17.5227 10.4886C17.5227 9.37121 17.7192 8.3982 18.1122 7.5696C18.5052 6.73627 19.0521 6.09233 19.7528 5.63778C20.4536 5.1785 21.2633 4.94886 22.1818 4.94886C22.892 4.94886 23.4555 5.06723 23.8722 5.30398C24.2936 5.53598 24.6155 5.80114 24.8381 6.09943C25.0653 6.39299 25.2405 6.63447 25.3636 6.82386H25.5341V5.09091H27.1534V16.3125C27.1534 17.25 26.9403 18.0123 26.5142 18.5994C26.0928 19.1913 25.5246 19.6245 24.8097 19.8991C24.0994 20.1785 23.3087 20.3182 22.4375 20.3182ZM22.3807 14.3239C23.053 14.3239 23.6212 14.17 24.0852 13.8622C24.5492 13.5545 24.902 13.1117 25.1435 12.5341C25.3849 11.9564 25.5057 11.2652 25.5057 10.4602C25.5057 9.67424 25.3873 8.98059 25.1506 8.37926C24.9138 7.77794 24.5634 7.30682 24.0994 6.96591C23.6354 6.625 23.0625 6.45455 22.3807 6.45455C21.6705 6.45455 21.0786 6.63447 20.6051 6.99432C20.1364 7.35417 19.7836 7.83712 19.5469 8.44318C19.3149 9.04924 19.1989 9.72159 19.1989 10.4602C19.1989 11.2178 19.3172 11.8878 19.554 12.4702C19.7955 13.0478 20.1506 13.5024 20.6193 13.8338C21.0928 14.1605 21.6799 14.3239 22.3807 14.3239ZM31.8977 9.4375V16H30.2216V5.09091H31.8409V6.79545H31.983C32.2386 6.24148 32.6269 5.7964 33.1477 5.46023C33.6686 5.11932 34.3409 4.94886 35.1648 4.94886C35.9034 4.94886 36.5497 5.10038 37.1037 5.40341C37.6577 5.7017 38.0885 6.15625 38.3963 6.76705C38.7041 7.37311 38.858 8.14015 38.858 9.06818V16H37.1818V9.18182C37.1818 8.32481 36.9593 7.6572 36.5142 7.17898C36.0691 6.69602 35.4583 6.45455 34.6818 6.45455C34.1468 6.45455 33.6686 6.57055 33.2472 6.80256C32.8305 7.03456 32.5014 7.37311 32.2599 7.81818C32.0185 8.26326 31.8977 8.80303 31.8977 9.4375ZM53.8526 6H52.0913C51.9871 5.49337 51.8048 5.0483 51.5444 4.66477C51.2887 4.28125 50.9762 3.95928 50.6069 3.69886C50.2423 3.43371 49.8375 3.23485 49.3924 3.10227C48.9473 2.9697 48.4833 2.90341 48.0004 2.90341C47.1197 2.90341 46.3219 3.12595 45.6069 3.57102C44.8967 4.0161 44.3308 4.67188 43.9094 5.53835C43.4928 6.40483 43.2844 7.4678 43.2844 8.72727C43.2844 9.98674 43.4928 11.0497 43.9094 11.9162C44.3308 12.7827 44.8967 13.4384 45.6069 13.8835C46.3219 14.3286 47.1197 14.5511 48.0004 14.5511C48.4833 14.5511 48.9473 14.4848 49.3924 14.3523C49.8375 14.2197 50.2423 14.0232 50.6069 13.7628C50.9762 13.4976 51.2887 13.1733 51.5444 12.7898C51.8048 12.4015 51.9871 11.9564 52.0913 11.4545H53.8526C53.7201 12.1979 53.4786 12.8632 53.1282 13.4503C52.7778 14.0374 52.3422 14.5369 51.8214 14.9489C51.3005 15.3561 50.7158 15.6662 50.0671 15.8793C49.4232 16.0923 48.7343 16.1989 48.0004 16.1989C46.7598 16.1989 45.6566 15.8958 44.6907 15.2898C43.7248 14.6837 42.9648 13.822 42.4109 12.7045C41.8569 11.5871 41.5799 10.2614 41.5799 8.72727C41.5799 7.19318 41.8569 5.86742 42.4109 4.75C42.9648 3.63258 43.7248 2.77083 44.6907 2.16477C45.6566 1.55871 46.7598 1.25568 48.0004 1.25568C48.7343 1.25568 49.4232 1.36222 50.0671 1.57528C50.7158 1.78835 51.3005 2.10085 51.8214 2.51278C52.3422 2.91998 52.7778 3.41714 53.1282 4.00426C53.4786 4.58665 53.7201 5.25189 53.8526 6ZM56.4716 16V5.09091H58.0909V6.73864H58.2045C58.4034 6.19886 58.7633 5.76089 59.2841 5.42472C59.8049 5.08854 60.392 4.92045 61.0455 4.92045C61.1686 4.92045 61.3224 4.92282 61.5071 4.92756C61.6918 4.93229 61.8314 4.93939 61.9261 4.94886V6.65341C61.8693 6.6392 61.7391 6.6179 61.5355 6.58949C61.3366 6.55634 61.1259 6.53977 60.9034 6.53977C60.3731 6.53977 59.8996 6.65104 59.483 6.87358C59.071 7.09138 58.7443 7.39441 58.5028 7.78267C58.2661 8.16619 58.1477 8.60417 58.1477 9.09659V16H56.4716ZM67.1232 16.2557C66.4319 16.2557 65.8046 16.1255 65.2411 15.8651C64.6777 15.5999 64.2302 15.2188 63.8988 14.7216C63.5674 14.2197 63.4016 13.6136 63.4016 12.9034C63.4016 12.2784 63.5247 11.7718 63.771 11.3835C64.0172 10.9905 64.3462 10.6828 64.7582 10.4602C65.1701 10.2377 65.6246 10.072 66.1218 9.96307C66.6237 9.84943 67.128 9.75947 67.6346 9.69318C68.2975 9.60795 68.8349 9.54403 69.2468 9.50142C69.6635 9.45407 69.9665 9.37595 70.1559 9.26705C70.35 9.15814 70.4471 8.96875 70.4471 8.69886V8.64205C70.4471 7.94129 70.2553 7.39678 69.8718 7.00852C69.493 6.62027 68.9177 6.42614 68.146 6.42614C67.3458 6.42614 66.7184 6.60133 66.2638 6.9517C65.8093 7.30208 65.4897 7.67614 65.305 8.07386L63.7141 7.50568C63.9982 6.8428 64.377 6.3267 64.8505 5.95739C65.3287 5.58333 65.8496 5.32292 66.413 5.17614C66.9812 5.02462 67.5399 4.94886 68.0891 4.94886C68.4395 4.94886 68.842 4.99148 69.2965 5.0767C69.7558 5.1572 70.1985 5.32528 70.6246 5.58097C71.0555 5.83665 71.413 6.22254 71.6971 6.73864C71.9812 7.25473 72.1232 7.94602 72.1232 8.8125V16H70.4471V14.5227H70.3619C70.2482 14.7595 70.0588 15.0128 69.7937 15.2827C69.5285 15.5526 69.1758 15.7822 68.7354 15.9716C68.2951 16.161 67.7577 16.2557 67.1232 16.2557ZM67.3789 14.75C68.0418 14.75 68.6005 14.6198 69.055 14.3594C69.5143 14.099 69.86 13.7628 70.092 13.3509C70.3287 12.9389 70.4471 12.5057 70.4471 12.0511V10.517C70.3761 10.6023 70.2198 10.6804 69.9783 10.7514C69.7416 10.8177 69.467 10.8769 69.1545 10.929C68.8467 10.9763 68.546 11.0189 68.2525 11.0568C67.9637 11.09 67.7293 11.1184 67.5494 11.142C67.1138 11.1989 66.7066 11.2912 66.3278 11.419C65.9537 11.5421 65.6507 11.7292 65.4187 11.9801C65.1914 12.2263 65.0778 12.5625 65.0778 12.9886C65.0778 13.571 65.2932 14.0114 65.7241 14.3097C66.1597 14.6032 66.7113 14.75 67.3789 14.75ZM80.0405 5.09091V6.51136H74.1598V5.09091H80.0405ZM75.9212 16V3.58523C75.9212 2.96023 76.0679 2.43939 76.3615 2.02273C76.6551 1.60606 77.0362 1.29356 77.505 1.08523C77.9737 0.876893 78.4685 0.772726 78.9893 0.772726C79.4013 0.772726 79.7375 0.80587 79.9979 0.872159C80.2583 0.938446 80.4524 0.999999 80.5803 1.05682L80.0973 2.50568C80.0121 2.47727 79.8937 2.44176 79.7422 2.39915C79.5954 2.35653 79.4013 2.33523 79.1598 2.33523C78.6058 2.33523 78.2057 2.4749 77.9595 2.75426C77.718 3.03362 77.5973 3.44318 77.5973 3.98295V16H75.9212ZM87.1339 5.09091V6.51136H81.4805V5.09091H87.1339ZM83.1282 2.47727H84.8043V12.875C84.8043 13.3485 84.873 13.7036 85.0103 13.9403C85.1523 14.1723 85.3323 14.3286 85.5501 14.4091C85.7726 14.4848 86.007 14.5227 86.2532 14.5227C86.4379 14.5227 86.5894 14.5133 86.7077 14.4943C86.8261 14.4706 86.9208 14.4517 86.9918 14.4375L87.3327 15.9432C87.2191 15.9858 87.0605 16.0284 86.8569 16.071C86.6533 16.1184 86.3952 16.142 86.0827 16.142C85.6093 16.142 85.1452 16.0402 84.6907 15.8366C84.2409 15.633 83.8668 15.3229 83.5685 14.9062C83.275 14.4896 83.1282 13.964 83.1282 13.3295V2.47727Z" fill="white"/>
</svg>
